HIERARCHY
ROOT Hips
{
	OFFSET 0.000000 87.230942 0.000000
	CHANNELS 6 Xposition Yposition Zposition Xrotation Yrotation Zrotation
	JOINT Pelvis
	{
		OFFSET 0.000000 0.000000 0.000000
		CHANNELS 3 Xrotation Yrotation Zrotation
		JOINT LeftUpLeg
		{
			OFFSET 12.017000 -9.376404 -2.439400
			CHANNELS 3 Xrotation Yrotation Zrotation
			JOINT LeftLeg
			{
				OFFSET -0.007312 -32.846973 2.110600
				CHANNELS 3 Xrotation Yrotation Zrotation
				JOINT LeftFoot
				{
					OFFSET 0.007312 -32.065170 -0.570400
					CHANNELS 3 Xrotation Yrotation Zrotation
					JOINT LeftToeBase
					{
						OFFSET 0.728300 -11.045900 13.180700
						CHANNELS 3 Xrotation Yrotation Zrotation
						End Site
						{
							OFFSET 0.000000 17.212589 0.000000
						}
					}
				}
				JOINT LeftPantLeg
				{
					OFFSET 0.002788 -16.709013 -3.143600
					CHANNELS 3 Xrotation Yrotation Zrotation
					End Site
					{
						OFFSET -0.605125 24.528742 0.000000
					}
				}
			}
			JOINT Left_Butt
			{
				OFFSET -6.630234 1.326584 -3.183700
				CHANNELS 3 Xrotation Yrotation Zrotation
				End Site
				{
					OFFSET -0.498041 20.188049 0.000000
				}
			}
		}
		JOINT RightUpLeg
		{
			OFFSET -11.717000 -9.376404 -2.439400
			CHANNELS 3 Xrotation Yrotation Zrotation
			JOINT RightLeg
			{
				OFFSET -0.003241 -32.846912 2.110600
				CHANNELS 3 Xrotation Yrotation Zrotation
				JOINT RightFoot
				{
					OFFSET 0.003241 -32.065136 -0.570500
					CHANNELS 3 Xrotation Yrotation Zrotation
					JOINT RightToeBase
					{
						OFFSET -0.728300 -11.045901 13.180700
						CHANNELS 3 Xrotation Yrotation Zrotation
						End Site
						{
							OFFSET 0.000000 17.212593 0.000000
						}
					}
				}
				JOINT RightPantLeg
				{
					OFFSET 0.008142 -16.708982 -3.143700
					CHANNELS 3 Xrotation Yrotation Zrotation
					End Site
					{
						OFFSET 0.605088 24.528715 0.000000
					}
				}
			}
			JOINT Right_Butt
			{
				OFFSET 6.630732 1.326584 -3.183700
				CHANNELS 3 Xrotation Yrotation Zrotation
				End Site
				{
					OFFSET 0.498015 20.188240 0.000000
				}
			}
		}
	}
	JOINT Spine
	{
		OFFSET -0.062400 7.848404 3.918300
		CHANNELS 3 Xrotation Yrotation Zrotation
		JOINT Spine1
		{
			OFFSET -0.072800 11.422302 0.713400
			CHANNELS 3 Xrotation Yrotation Zrotation
			JOINT Spine2
			{
				OFFSET -0.083200 13.054001 -1.931600
				CHANNELS 3 Xrotation Yrotation Zrotation
				JOINT Neck
				{
					OFFSET -0.092200 14.121796 -5.138800
					CHANNELS 3 Xrotation Yrotation Zrotation
					JOINT Head
					{
						OFFSET 0.000200 10.447403 -0.842000
						CHANNELS 3 Xrotation Yrotation Zrotation
						JOINT Visor
						{
							OFFSET 0.457100 25.671204 16.550400
							CHANNELS 3 Xrotation Yrotation Zrotation
							End Site
							{
								OFFSET 0.000000 26.061493 0.000000
							}
						}
						JOINT HairMidA
						{
							OFFSET 0.459400 31.585403 8.437400
							CHANNELS 3 Xrotation Yrotation Zrotation
							End Site
							{
								OFFSET 0.000000 26.061493 0.000000
							}
						}
						JOINT HairMidB
						{
							OFFSET 0.464000 33.309204 -8.389700
							CHANNELS 3 Xrotation Yrotation Zrotation
							End Site
							{
								OFFSET 0.000000 26.061493 0.000000
							}
						}
						JOINT HairMidC
						{
							OFFSET 0.466600 27.991196 -17.375099
							CHANNELS 3 Xrotation Yrotation Zrotation
							End Site
							{
								OFFSET 0.000000 26.061493 0.000000
							}
						}
						JOINT HairMidD
						{
							OFFSET 0.467700 17.888092 -21.169500
							CHANNELS 3 Xrotation Yrotation Zrotation
							End Site
							{
								OFFSET 0.000000 26.061493 0.000000
							}
						}
						JOINT HairMidE
						{
							OFFSET 5.325700 3.514603 -14.369699
							CHANNELS 3 Xrotation Yrotation Zrotation
							End Site
							{
								OFFSET 0.000000 26.061493 0.000000
							}
						}
						JOINT HairMidF
						{
							OFFSET -4.394100 3.514603 -14.372400
							CHANNELS 3 Xrotation Yrotation Zrotation
							End Site
							{
								OFFSET 0.000000 26.061493 0.000000
							}
						}
						JOINT HairLeftA
						{
							OFFSET 15.319900 25.746506 2.623300
							CHANNELS 3 Xrotation Yrotation Zrotation
							End Site
							{
								OFFSET 0.000000 26.061493 0.000000
							}
						}
						JOINT HairLeftB
						{
							OFFSET 12.619500 29.289398 -8.731499
							CHANNELS 3 Xrotation Yrotation Zrotation
							End Site
							{
								OFFSET 0.000000 26.061493 0.000000
							}
						}
						JOINT HairLeftC
						{
							OFFSET 15.714800 15.959900 2.909800
							CHANNELS 3 Xrotation Yrotation Zrotation
							End Site
							{
								OFFSET 0.000000 26.061493 0.000000
							}
						}
						JOINT HairLeftD
						{
							OFFSET 16.101700 18.437408 -7.553200
							CHANNELS 3 Xrotation Yrotation Zrotation
							End Site
							{
								OFFSET 0.000000 26.061493 0.000000
							}
						}
						JOINT HairLeftE
						{
							OFFSET 9.731900 17.915009 -18.316799
							CHANNELS 3 Xrotation Yrotation Zrotation
							End Site
							{
								OFFSET 0.000000 26.061493 0.000000
							}
						}
						JOINT HairLeftF
						{
							OFFSET 11.204300 4.953598 -9.668100
							CHANNELS 3 Xrotation Yrotation Zrotation
							End Site
							{
								OFFSET 0.000000 26.061493 0.000000
							}
						}
						JOINT HairRightA
						{
							OFFSET -14.397900 25.746307 2.615100
							CHANNELS 3 Xrotation Yrotation Zrotation
							End Site
							{
								OFFSET 0.000000 26.061493 0.000000
							}
						}
						JOINT HairRightB
						{
							OFFSET -11.691200 29.289200 -8.738199
							CHANNELS 3 Xrotation Yrotation Zrotation
							End Site
							{
								OFFSET 0.000000 26.061493 0.000000
							}
						}
						JOINT HairRightC
						{
							OFFSET -14.792900 15.959702 2.901400
							CHANNELS 3 Xrotation Yrotation Zrotation
							End Site
							{
								OFFSET 0.000000 26.061493 0.000000
							}
						}
						JOINT HairRightD
						{
							OFFSET -15.174000 18.437195 -7.561900
							CHANNELS 3 Xrotation Yrotation Zrotation
							End Site
							{
								OFFSET 0.000000 26.061493 0.000000
							}
						}
						JOINT HairRightE
						{
							OFFSET -8.798200 17.914902 -18.322001
							CHANNELS 3 Xrotation Yrotation Zrotation
							End Site
							{
								OFFSET 0.000000 26.061493 0.000000
							}
						}
						JOINT HairRightF
						{
							OFFSET -10.275200 4.953506 -9.674099
							CHANNELS 3 Xrotation Yrotation Zrotation
							End Site
							{
								OFFSET 0.000000 26.061493 0.000000
							}
						}
					}
				}
				JOINT LeftShoulder
				{
					OFFSET 5.133500 7.341202 -1.867600
					CHANNELS 3 Xrotation Yrotation Zrotation
					JOINT LeftArm
					{
						OFFSET 8.072663 0.936867 -2.176600
						CHANNELS 3 Xrotation Yrotation Zrotation
						JOINT LeftForeArm
						{
							OFFSET 31.271999 0.000000 0.000000
							CHANNELS 3 Xrotation Yrotation Zrotation
							JOINT LeftHand
							{
								OFFSET 31.771030 0.000000 0.000000
								CHANNELS 3 Xrotation Yrotation Zrotation
								JOINT LeftHandThumb1
								{
									OFFSET 2.886520 -2.557846 4.416640
									CHANNELS 3 Xrotation Yrotation Zrotation
									JOINT LeftHandThumb2
									{
										OFFSET 2.371025 -1.368912 1.368911
										CHANNELS 3 Xrotation Yrotation Zrotation
										JOINT LeftHandThumb3
										{
											OFFSET 2.243378 -1.295212 1.295213
											CHANNELS 3 Xrotation Yrotation Zrotation
											End Site
											{
												OFFSET -0.332611 2.876945 0.020015
											}
										}
									}
								}
								JOINT LeftHandIndex1
								{
									OFFSET 8.568985 -0.641945 3.119977
									CHANNELS 3 Xrotation Yrotation Zrotation
									JOINT LeftHandIndex2
									{
										OFFSET 3.348503 0.000000 0.000000
										CHANNELS 3 Xrotation Yrotation Zrotation
										JOINT LeftHandIndex3
										{
											OFFSET 3.314552 0.000000 0.000000
											CHANNELS 3 Xrotation Yrotation Zrotation
											End Site
											{
												OFFSET -1.032898 3.075485 0.678796
											}
										}
									}
								}
								JOINT LeftHandMiddle1
								{
									OFFSET 8.124603 0.000000 0.000000
									CHANNELS 3 Xrotation Yrotation Zrotation
									JOINT LeftHandMiddle2
									{
										OFFSET 4.166275 0.000000 0.000000
										CHANNELS 3 Xrotation Yrotation Zrotation
										JOINT LeftHandMiddle3
										{
											OFFSET 3.018135 0.000000 0.000000
											CHANNELS 3 Xrotation Yrotation Zrotation
											End Site
											{
												OFFSET -1.032700 2.767982 0.617226
											}
										}
									}
								}
								JOINT LeftHandRing1
								{
									OFFSET 8.571686 -0.031357 -2.884048
									CHANNELS 3 Xrotation Yrotation Zrotation
									JOINT LeftHandRing2
									{
										OFFSET 3.671181 0.000000 0.000000
										CHANNELS 3 Xrotation Yrotation Zrotation
										JOINT LeftHandRing3
										{
											OFFSET 2.728851 0.000000 0.000000
											CHANNELS 3 Xrotation Yrotation Zrotation
											End Site
											{
												OFFSET -0.815796 2.539223 0.577389
											}
										}
									}
								}
								JOINT LeftHandPinky1
								{
									OFFSET 7.854515 -0.675232 -5.213020
									CHANNELS 3 Xrotation Yrotation Zrotation
									JOINT LeftHandPinky2
									{
										OFFSET 3.068596 0.000000 0.000000
										CHANNELS 3 Xrotation Yrotation Zrotation
										JOINT LeftHandPinky3
										{
											OFFSET 2.396042 0.000000 0.000000
											CHANNELS 3 Xrotation Yrotation Zrotation
											End Site
											{
												OFFSET -0.524597 2.267998 0.567429
											}
										}
									}
								}
							}
							JOINT LeftSleeve
							{
								OFFSET 19.684509 -0.200119 0.476146
								CHANNELS 3 Xrotation Yrotation Zrotation
								End Site
								{
									OFFSET -0.031017 25.731133 -0.002868
								}
							}
						}
					}
				}
				JOINT RightShoulder
				{
					OFFSET -4.395900 7.341202 -1.870200
					CHANNELS 3 Xrotation Yrotation Zrotation
					JOINT RightArm
					{
						OFFSET -8.071453 0.936867 -2.181100
						CHANNELS 3 Xrotation Yrotation Zrotation
						JOINT RightForeArm
						{
							OFFSET -31.272011 0.000000 0.000000
							CHANNELS 3 Xrotation Yrotation Zrotation
							JOINT RightHand
							{
								OFFSET -31.771019 0.000000 0.000000
								CHANNELS 3 Xrotation Yrotation Zrotation
								JOINT RightHandThumb1
								{
									OFFSET -2.886520 -2.557808 4.416626
									CHANNELS 3 Xrotation Yrotation Zrotation
									JOINT RightHandThumb2
									{
										OFFSET -2.371056 -1.368927 1.368928
										CHANNELS 3 Xrotation Yrotation Zrotation
										JOINT RightHandThumb3
										{
											OFFSET -2.243362 -1.295204 1.295206
											CHANNELS 3 Xrotation Yrotation Zrotation
											End Site
											{
												OFFSET 0.332642 2.876938 0.020047
											}
										}
									}
								}
								JOINT RightHandIndex1
								{
									OFFSET -8.568993 -0.641953 3.120017
									CHANNELS 3 Xrotation Yrotation Zrotation
									JOINT RightHandIndex2
									{
										OFFSET -3.348518 0.000000 0.000000
										CHANNELS 3 Xrotation Yrotation Zrotation
										JOINT RightHandIndex3
										{
											OFFSET -3.314552 0.000000 0.000000
											CHANNELS 3 Xrotation Yrotation Zrotation
											End Site
											{
												OFFSET 1.032898 3.075478 0.678804
											}
										}
									}
								}
								JOINT RightHandMiddle1
								{
									OFFSET -8.124588 0.000000 0.000000
									CHANNELS 3 Xrotation Yrotation Zrotation
									JOINT RightHandMiddle2
									{
										OFFSET -4.166275 0.000000 0.000000
										CHANNELS 3 Xrotation Yrotation Zrotation
										JOINT RightHandMiddle3
										{
											OFFSET -3.018097 0.000000 0.000000
											CHANNELS 3 Xrotation Yrotation Zrotation
											End Site
											{
												OFFSET 1.032700 2.767937 0.617197
											}
										}
									}
								}
								JOINT RightHandRing1
								{
									OFFSET -8.571747 -0.031349 -2.884061
									CHANNELS 3 Xrotation Yrotation Zrotation
									JOINT RightHandRing2
									{
										OFFSET -3.671204 0.000000 0.000000
										CHANNELS 3 Xrotation Yrotation Zrotation
										JOINT RightHandRing3
										{
											OFFSET -2.728874 0.000000 0.000000
											CHANNELS 3 Xrotation Yrotation Zrotation
											End Site
											{
												OFFSET 0.815804 2.539261 0.577413
											}
										}
									}
								}
								JOINT RightHandPinky1
								{
									OFFSET -7.854561 -0.675247 -5.212970
									CHANNELS 3 Xrotation Yrotation Zrotation
									JOINT RightHandPinky2
									{
										OFFSET -3.068550 0.000000 0.000000
										CHANNELS 3 Xrotation Yrotation Zrotation
										JOINT RightHandPinky3
										{
											OFFSET -2.395981 0.000000 0.000000
											CHANNELS 3 Xrotation Yrotation Zrotation
											End Site
											{
												OFFSET 0.524605 2.267952 0.567413
											}
										}
									}
								}
							}
							JOINT RightSleeve
							{
								OFFSET -19.684753 -0.200165 0.476065
								CHANNELS 3 Xrotation Yrotation Zrotation
								End Site
								{
									OFFSET 0.031342 25.731255 -0.002917
								}
							}
						}
					}
				}
				JOINT Hood
				{
					OFFSET 0.369700 14.447800 -5.317800
					CHANNELS 3 Xrotation Yrotation Zrotation
					JOINT Hood1
					{
						OFFSET 0.001700 -5.553802 -5.895100
						CHANNELS 3 Xrotation Yrotation Zrotation
						JOINT Hood2
						{
							OFFSET -0.000200 -8.380501 0.763600
							CHANNELS 3 Xrotation Yrotation Zrotation
							End Site
							{
								OFFSET 0.000000 8.415215 0.000000
							}
						}
					}
				}
				JOINT Left_Breast
				{
					OFFSET 5.682500 3.120102 3.188800
					CHANNELS 3 Xrotation Yrotation Zrotation
					End Site
					{
						OFFSET 0.000000 10.528564 0.000000
					}
				}
				JOINT Right_Breast
				{
					OFFSET -4.947600 3.120102 3.185900
					CHANNELS 3 Xrotation Yrotation Zrotation
					End Site
					{
						OFFSET 0.000000 10.528564 0.000000
					}
				}
				JOINT Whistle
				{
					OFFSET 0.368200 11.471298 0.095400
					CHANNELS 3 Xrotation Yrotation Zrotation
					JOINT Whistle1
					{
						OFFSET -0.002000 -6.349899 7.479800
						CHANNELS 3 Xrotation Yrotation Zrotation
						JOINT Whistle2
						{
							OFFSET -0.001300 -8.217598 4.717600
							CHANNELS 3 Xrotation Yrotation Zrotation
							End Site
							{
								OFFSET 0.000000 9.475479 0.000000
							}
						}
					}
				}
			}
		}
		JOINT Belly
		{
			OFFSET 0.212400 1.593002 3.163700
			CHANNELS 3 Xrotation Yrotation Zrotation
			End Site
			{
				OFFSET 0.000000 7.496635 0.000000
			}
		}
	}
	JOINT FitGrandmaFacialAnim_Joint
	{
		OFFSET 1.150000 -86.211197 -1.220100
		CHANNELS 3 Xrotation Yrotation Zrotation
		End Site
		{
			OFFSET 0.000000 31.666618 0.000000
		}
	}
}
MOTION
Frames: 4
Frame Time: 0.016667
-1.976139 78.186676 0.595322 -10.679744 -53.599390 -2.620178 -0.000000 -0.000002 -0.000000 -20.267497 15.740005 20.599130 40.807413 -4.753511 -0.836331 -11.199589 2.106774 -15.271827 0.000000 -0.000002 0.000000 -0.000001 0.000001 -0.000000 0.000001 -0.000001 -0.000001 -21.879109 -1.422994 -22.215067 53.619539 4.202406 -8.249571 -23.737037 -4.477391 17.263952 -0.000000 -0.000000 0.000000 -0.000001 -0.000003 0.000003 -0.000000 -0.000000 -0.000000 6.699679 0.909537 -2.446797 13.440115 1.505918 -5.282123 13.440117 1.505921 -5.282121 3.996208 2.607463 -0.466373 -8.638509 40.681324 -5.376926 -0.000001 0.000000 -0.000000 -0.000001 0.000000 -0.000000 -0.000001 0.000000 -0.000000 -0.000001 0.000000 -0.000000 -0.000001 0.000000 -0.000000 -0.000001 0.000000 -0.000000 -0.000001 0.000000 -0.000000 -0.000001 0.000000 -0.000000 -0.000001 0.000000 -0.000000 -0.000001 0.000000 -0.000000 -0.000001 0.000000 -0.000000 -0.000001 0.000000 -0.000000 -0.000001 0.000000 -0.000000 -0.000001 0.000000 -0.000000 -0.000001 0.000000 -0.000000 -0.000001 0.000000 -0.000000 -0.000001 0.000000 -0.000000 -0.000001 0.000000 -0.000000 -0.000001 0.000000 -0.000000 -0.177274 -6.033949 5.204527 -21.071661 17.785760 -57.231494 0.000027 -126.318762 0.000027 -6.641486 -5.398323 -3.626837 -2.154158 6.800156 9.892471 25.836142 36.182429 -25.085231 0.000000 -0.000002 -0.000005 20.887325 7.645953 -92.409625 7.469728 5.623419 -106.086853 0.000003 -0.000001 0.000002 12.668620 7.118935 -99.980466 7.120927 5.712053 -102.555967 0.000002 -0.000001 -0.000002 5.682282 8.252722 -95.779463 8.216184 5.353316 -113.878760 0.000002 -0.000001 -0.000000 -3.644680 8.906849 -93.940031 7.168160 5.701373 -103.031088 -0.000003 -0.000001 -0.000000 0.000002 -0.000001 -0.000003 10.920042 26.931045 3.130403 -46.478160 38.185863 48.496081 0.000119 110.564514 -0.000149 -26.511557 16.043008 15.588631 -8.123084 -3.695100 -18.700530 26.149308 -37.962123 25.226194 -0.000002 0.000002 0.000003 19.570604 -6.576457 91.648523 5.944079 -4.476244 106.057675 -0.000004 -0.000003 0.000008 11.200839 -5.955874 99.192679 5.666687 -4.546656 102.532723 -0.000002 -0.000000 0.000000 4.287429 -6.986213 95.001593 6.537662 -4.261397 113.838141 0.000001 0.000000 -0.000001 -5.006080 -7.516108 93.188116 5.704235 -4.538166 103.006978 -0.000003 0.000000 -0.000002 -0.000002 -0.000002 0.000002 0.000001 -0.000003 0.000000 0.000001 -0.000003 0.000000 0.000001 -0.000003 0.000000 0.000001 -0.000003 0.000000 0.000001 -0.000003 0.000000 0.000001 -0.000003 0.000001 -0.000002 0.000001 -0.000000 -0.000002 0.000001 -0.000000 0.000000 -0.000002 -0.000000 -0.000000 -0.000002 -0.000000 
-2.429579 78.216431 0.045736 -10.902216 -53.096395 -2.312700 0.000000 -0.000004 0.000000 -19.364440 15.500457 20.046037 39.218840 -5.317774 -0.325090 -10.211288 2.911331 -15.813203 0.000000 -0.000003 0.000000 -0.000000 0.000001 0.000002 -0.000004 -0.000000 0.000000 -21.938626 -1.559534 -22.087150 54.738311 3.665972 -8.050138 -25.044087 -4.704971 15.382448 -0.000000 0.000001 -0.000000 -0.000000 -0.000003 -0.000002 0.000000 0.000001 0.000001 6.882464 0.460549 -2.981666 13.428627 1.385316 -5.296946 13.420773 1.411933 -5.309470 4.071260 2.649587 -0.515530 -6.896897 40.845166 -6.341606 0.000002 0.000000 0.000000 0.000002 0.000000 0.000000 0.000002 0.000000 0.000000 0.000002 0.000000 0.000000 0.000002 0.000000 0.000000 0.000002 0.000000 0.000000 0.000002 0.000000 0.000000 0.000002 0.000000 0.000000 0.000002 0.000000 0.000000 0.000002 0.000000 0.000000 0.000002 0.000000 0.000000 0.000002 0.000000 0.000000 0.000002 0.000000 0.000000 0.000002 0.000000 0.000000 0.000002 0.000000 0.000000 0.000002 0.000000 0.000000 0.000002 0.000000 0.000000 0.000002 0.000000 0.000000 0.000002 0.000000 0.000000 -0.474781 -6.155480 3.198678 -17.792049 18.997999 -56.885999 0.000030 -127.660662 0.000028 -8.813704 -2.100042 4.977273 -2.188143 6.630871 9.840814 25.854679 36.200037 -25.080868 -0.000003 -0.000002 -0.000000 20.610366 7.814791 -91.789239 7.445519 5.630303 -105.840017 0.000002 -0.000002 0.000000 12.580233 7.208622 -99.250182 7.098222 5.717025 -102.328050 0.000000 -0.000000 -0.000002 5.709302 8.240811 -95.092810 8.194866 5.362676 -113.650366 0.000002 -0.000002 0.000004 -3.440394 8.797299 -93.391731 7.145224 5.706631 -102.800337 -0.000002 -0.000003 -0.000004 0.000000 0.000000 -0.000000 10.865822 26.827583 2.963933 -46.847882 38.723594 50.356574 0.000025 107.879498 -0.000027 -24.744573 13.727453 13.795251 -8.127563 -3.556520 -18.647070 26.048212 -37.885065 25.176123 -0.000003 -0.000001 -0.000000 19.390007 -6.733559 91.056148 5.924148 -4.481923 105.802328 -0.000002 -0.000001 -0.000001 11.102765 -6.063351 98.288533 5.648058 -4.550753 102.297669 0.000001 0.000002 -0.000005 4.274406 -6.978807 94.402428 6.520061 -4.269106 113.601646 0.000000 0.000000 -0.000001 -4.791090 -7.407668 92.634932 5.686447 -4.542189 102.782360 0.000000 -0.000000 0.000001 -0.000001 -0.000000 -0.000002 -0.000000 0.000001 0.000001 -0.000000 0.000001 0.000001 -0.000000 0.000001 0.000001 -0.000000 0.000001 0.000001 -0.000000 0.000001 0.000001 -0.000000 0.000001 0.000001 -0.000000 -0.000001 -0.000000 -0.000000 -0.000001 -0.000000 -0.000000 0.000000 -0.000000 0.000000 -0.000004 0.000000 
-2.835626 78.275818 -0.678386 -10.728691 -52.033945 -1.802825 -0.000000 0.000003 -0.000000 -18.756949 14.620213 19.330752 37.191907 -4.909350 0.491448 -8.596406 2.966164 -16.841575 0.000000 -0.000001 -0.000000 0.000001 0.000004 -0.000001 -0.000001 -0.000002 0.000002 -21.883564 -1.746586 -21.807950 55.606807 3.309726 -7.666579 -25.967841 -5.472577 13.923475 -0.000000 0.000001 -0.000000 -0.000000 -0.000003 0.000001 -0.000001 0.000002 0.000001 7.704090 0.246861 -3.530446 13.471025 1.247501 -5.375650 13.463744 1.291648 -5.383118 3.970774 2.575117 -0.513150 -6.939615 39.500282 -7.024649 0.000001 -0.000000 -0.000000 0.000001 -0.000000 -0.000000 0.000001 -0.000000 -0.000000 0.000001 -0.000000 -0.000000 0.000001 -0.000000 -0.000000 0.000001 -0.000000 -0.000000 0.000001 -0.000000 -0.000000 0.000001 -0.000000 -0.000000 0.000001 -0.000000 -0.000000 0.000001 -0.000000 -0.000000 0.000001 -0.000000 -0.000000 0.000001 -0.000000 -0.000000 0.000001 -0.000000 -0.000000 0.000001 -0.000000 -0.000000 0.000001 -0.000000 -0.000000 0.000001 -0.000000 -0.000000 0.000001 -0.000000 -0.000000 0.000001 -0.000000 -0.000000 0.000001 -0.000000 -0.000000 -0.604222 -6.510275 2.042942 -15.274323 19.486412 -56.458067 0.000049 -128.879618 0.000047 -13.542298 1.471578 15.982702 -2.260586 6.272423 9.731070 25.893599 36.237213 -25.070906 0.000000 -0.000000 -0.000002 20.016815 8.154944 -90.469312 7.393986 5.644597 -105.315390 0.000001 0.000001 -0.000003 12.388799 7.393786 -97.702052 7.049948 5.727323 -101.843776 -0.000001 -0.000001 0.000002 5.767040 8.220519 -93.638239 8.149393 5.382251 -113.164849 0.000000 0.000000 0.000000 -3.004418 8.580156 -92.228051 7.096446 5.717421 -102.310278 -0.000001 -0.000001 -0.000000 -0.000000 -0.000003 -0.000000 10.874069 26.686425 2.331224 -47.669888 38.728966 52.535660 0.000036 105.112663 -0.000024 -23.149350 9.982426 13.220425 -8.137354 -3.262890 -18.533819 25.834241 -37.721188 25.070329 0.000001 0.000001 -0.000000 19.001443 -7.055774 89.797030 5.881640 -4.493688 105.259246 0.000000 0.000001 0.000003 10.888986 -6.283839 96.371503 5.608344 -4.559201 101.797713 0.000000 0.000000 -0.000002 4.247095 -6.963887 93.132464 6.482533 -4.285273 113.098350 -0.000001 0.000002 -0.000004 -4.332456 -7.193262 91.460099 5.648602 -4.550597 102.304718 0.000003 0.000000 -0.000005 0.000004 -0.000002 -0.000000 0.000003 -0.000002 0.000001 0.000003 -0.000002 0.000001 0.000003 -0.000002 0.000001 0.000003 -0.000002 0.000001 0.000003 -0.000002 0.000001 0.000002 -0.000002 0.000001 -0.000000 0.000000 -0.000000 -0.000000 0.000000 -0.000000 -0.000000 0.000003 -0.000000 -0.000000 0.000003 -0.000000 
-3.194773 78.339188 -1.501612 -10.378323 -50.508255 -1.217886 -0.000000 0.000000 0.000000 -19.235988 13.009850 18.950476 35.811413 -4.489202 1.476290 -4.814510 2.269653 -18.859201 -0.000000 0.000001 0.000000 -0.000000 -0.000001 0.000003 0.000001 0.000001 -0.000003 -21.734970 -2.035635 -21.442815 56.380435 3.019160 -7.127580 -26.871732 -6.614610 12.370439 0.000000 0.000002 -0.000000 -0.000001 0.000001 -0.000004 -0.000002 0.000002 0.000001 9.083686 0.214936 -4.040565 13.571644 1.134036 -5.519530 13.568762 1.181510 -5.516783 3.692154 2.416218 -0.492110 -8.158102 37.043490 -7.461727 -0.000001 -0.000000 -0.000000 -0.000001 -0.000000 -0.000000 -0.000001 -0.000000 -0.000000 -0.000001 -0.000000 -0.000000 -0.000001 -0.000000 -0.000000 -0.000001 -0.000000 -0.000000 -0.000001 -0.000000 -0.000000 -0.000001 -0.000000 -0.000000 -0.000001 -0.000000 -0.000000 -0.000001 -0.000000 -0.000000 -0.000001 -0.000000 -0.000000 -0.000001 -0.000000 -0.000000 -0.000001 -0.000000 -0.000000 -0.000001 -0.000000 -0.000000 -0.000001 -0.000000 -0.000000 -0.000001 -0.000000 -0.000000 -0.000001 -0.000000 -0.000000 -0.000001 -0.000000 -0.000000 -0.000001 -0.000000 -0.000000 -0.610950 -7.055513 1.499507 -13.733020 19.141708 -55.614416 0.000014 -129.834615 0.000029 -19.817063 3.436079 27.557057 -2.360262 5.784484 9.581072 25.946459 36.287760 -25.057000 -0.000001 -0.000000 -0.000001 19.194860 8.579320 -88.660070 7.323488 5.663357 -104.599867 0.000004 0.000003 -0.000002 12.119556 7.635045 -95.591387 6.983955 5.740679 -101.183331 0.000000 0.000001 -0.000003 5.846713 8.203644 -91.657430 8.087122 5.408344 -112.502634 0.000002 0.000001 -0.000001 -2.404191 8.317331 -90.638782 7.029807 5.731495 -101.642176 -0.000002 -0.000003 -0.000003 0.000002 -0.000000 0.000002 10.915533 26.508852 1.381146 -49.008796 38.270137 54.704973 0.000057 102.389529 -0.000061 -21.485268 5.843203 12.774790 -8.151688 -2.862861 -18.379829 25.543934 -37.497240 24.927983 0.000002 -0.000001 -0.000001 18.460325 -7.470839 88.074354 5.823476 -4.509104 104.518205 0.000001 -0.000005 0.000002 10.585442 -6.567942 93.757590 5.554061 -4.570171 101.115630 -0.000001 0.000000 -0.000002 4.210459 -6.945342 91.402527 6.431095 -4.306804 112.411643 0.000001 -0.000001 0.000001 -3.701429 -6.935078 89.854977 5.596818 -4.561557 101.653084 -0.000001 0.000004 -0.000004 0.000000 0.000000 -0.000001 0.000003 0.000001 0.000001 0.000003 0.000001 0.000001 0.000003 0.000001 0.000001 0.000003 0.000001 0.000001 0.000003 0.000001 0.000001 0.000002 0.000001 -0.000001 0.000002 0.000001 -0.000001 0.000002 0.000001 -0.000001 0.000000 0.000001 -0.000000 -0.000000 0.000000 0.000000 
